<svg width="36" height="26" viewBox="0 0 36 26" fill="none" xmlns="http://www.w3.org/2000/svg">
<path d="M31.0909 6.5H26.1818V0H3.27273C1.46455 0 0 1.45437 0 3.25V21.125H3.27273C3.27273 23.8144 5.47364 26 8.18182 26C10.89 26 13.0909 23.8144 13.0909 21.125H22.9091C22.9091 23.8144 25.11 26 27.8182 26C30.5264 26 32.7273 23.8144 32.7273 21.125H36V13L31.0909 6.5ZM8.18182 23.5625C6.82364 23.5625 5.72727 22.4738 5.72727 21.125C5.72727 19.7763 6.82364 18.6875 8.18182 18.6875C9.54 18.6875 10.6364 19.7763 10.6364 21.125C10.6364 22.4738 9.54 23.5625 8.18182 23.5625ZM30.2727 8.9375L33.4882 13H26.1818V8.9375H30.2727ZM27.8182 23.5625C26.46 23.5625 25.3636 22.4738 25.3636 21.125C25.3636 19.7763 26.46 18.6875 27.8182 18.6875C29.1764 18.6875 30.2727 19.7763 30.2727 21.125C30.2727 22.4738 29.1764 23.5625 27.8182 23.5625Z" fill="#FFCC00"/>
</svg>
