<svg width="41" height="40" viewBox="0 0 41 40" fill="none" xmlns="http://www.w3.org/2000/svg">
<path d="M37.9293 20.9538C38.6237 21.6482 39.0172 22.5895 39.0172 23.5694C39.0172 24.5493 38.6237 25.4906 37.9293 26.185C37.2349 26.8794 36.2936 27.2729 35.3138 27.2729H5.6859C4.70371 27.2729 3.76164 26.8794 3.06723 26.185C2.37283 25.4906 1.98242 24.5493 1.98242 23.5694C1.98242 22.5895 2.37283 21.6482 3.06723 20.9538C3.76164 20.2594 4.70371 19.8659 5.6859 19.8659H35.3138C36.2936 19.8659 37.2349 20.2594 37.9293 20.9538ZM37.4201 30.1045C37.6516 30.336 37.7827 30.6523 37.7827 30.9764V32.2109C37.7827 33.4531 37.2658 34.7802 36.3399 35.706C35.4141 36.6319 34.087 37.1488 32.8448 37.1488H8.15489C6.84556 37.1488 5.58946 36.6319 4.66359 35.706C3.73695 34.7802 3.21692 33.4531 3.21692 32.2109V30.9764C3.21692 30.6523 3.34731 30.336 3.57878 30.1045C3.81024 29.873 4.12427 29.7419 4.45141 29.7419H36.5483C36.8723 29.7419 37.1886 29.873 37.4201 30.1045ZM4.63581 17.15C4.2917 16.9803 3.99079 16.7411 3.75469 16.4402C3.5186 16.1393 3.35502 15.7921 3.27478 15.4217C3.19454 15.0437 3.20148 14.6579 3.2933 14.2876C4.98996 7.59968 12.0513 2.58301 20.4998 2.58301C28.9484 2.58301 36.0082 7.59968 37.7056 14.2876C37.7982 14.6579 37.8059 15.0437 37.721 15.4217C37.6439 15.7921 37.4818 16.1393 37.2427 16.4402C36.9417 16.7411 36.7103 16.9803 36.3631 17.15C36.0236 17.3121 35.6455 17.3969 35.2598 17.3969H5.7376C5.35645 17.3969 4.97916 17.3121 4.63581 17.15ZM29.5039 9.11811C29.2725 9.34958 29.1413 9.66592 29.1413 9.98997C29.1413 10.2369 29.2107 10.4761 29.3496 10.6767C29.4885 10.8773 29.6119 11.0393 29.9051 11.1319C30.1289 11.155 30.3758 11.2476 30.615 11.2013C30.8542 11.155 31.0779 11.0393 31.2476 10.8618C31.4251 10.6921 31.5408 10.4683 31.5871 10.2292C31.6334 9.98997 31.5408 9.74307 31.5177 9.51932C31.4251 9.22613 31.2631 9.10268 31.0625 8.9638C30.8619 8.82492 30.6227 8.68604 30.3758 8.68604C30.0517 8.68604 29.7354 8.88664 29.5039 9.11811ZM19.628 6.64835C19.3965 6.87982 19.2653 7.19384 19.2653 7.52098C19.2653 7.7648 19.3348 8.00707 19.4737 8.20767C19.6125 8.40828 19.736 8.5703 20.0292 8.66289C20.2529 8.68604 20.4998 8.77863 20.739 8.73233C20.9782 8.68604 21.202 8.5703 21.3717 8.39285C21.5492 8.2231 21.6649 7.99935 21.7112 7.76171C21.7575 7.52253 21.6649 7.27409 21.6417 7.04879C21.5492 6.82272 21.3871 6.62983 21.1865 6.49481C20.9859 6.35902 20.7467 6.21705 20.4998 6.21705C20.1758 6.21705 19.8594 6.41688 19.628 6.64835ZM9.75202 9.11811C9.52055 9.34958 9.38939 9.66592 9.38939 9.98997C9.38939 10.2369 9.45883 10.4761 9.59771 10.6767C9.73659 10.8773 9.86004 11.0393 10.1532 11.1319C10.377 11.155 10.6239 11.2476 10.8631 11.2013C11.1022 11.155 11.326 11.0393 11.4957 10.8618C11.6732 10.6921 11.7889 10.4683 11.8352 10.2292C11.8815 9.98997 11.7889 9.74307 11.7658 9.51932C11.6732 9.22613 11.5112 9.10268 11.3106 8.9638C11.11 8.82492 10.8708 8.68604 10.6239 8.68604C10.2998 8.68604 9.98349 8.88664 9.75202 9.11811Z" fill="#FFCC00"/>
</svg>
