<svg width="42" height="42" viewBox="0 0 42 42" fill="none" xmlns="http://www.w3.org/2000/svg">
<path d="M21.061 0.870117C9.90715 0.870117 0.870117 9.90715 0.870117 21.061C0.870117 32.2148 9.90715 41.2518 21.061 41.2518C32.2148 41.2518 41.2518 32.2148 41.2518 21.061C41.2518 9.90715 32.2148 0.870117 21.061 0.870117ZM28.591 26.3529L26.9627 28.3883C26.8558 28.5219 26.7237 28.6331 26.5739 28.7156C26.424 28.7982 26.2594 28.8504 26.0894 28.8693C25.9193 28.8882 25.7472 28.8734 25.5829 28.8258C25.4186 28.7782 25.2653 28.6987 25.1317 28.5918L19.6769 24.5439C19.2958 24.2387 18.9881 23.8518 18.7767 23.4117C18.5653 22.9716 18.4556 22.4895 18.4557 22.0013V9.33724C18.4557 8.99176 18.5929 8.66043 18.8372 8.41614C19.0815 8.17185 19.4128 8.03461 19.7583 8.03461H22.3636C22.7091 8.03461 23.0404 8.17185 23.2847 8.41614C23.529 8.66043 23.6662 8.99176 23.6662 9.33724V21.061L28.3883 24.5211C28.5219 24.628 28.6332 24.7602 28.7157 24.9102C28.7983 25.0601 28.8504 25.2249 28.8693 25.395C28.8881 25.5651 28.8732 25.7373 28.8255 25.9016C28.7777 26.066 28.698 26.2193 28.591 26.3529Z" fill="#FFCC00"/>
</svg>
