<svg width="28" height="28" viewBox="0 0 28 28" fill="none" xmlns="http://www.w3.org/2000/svg">
<path d="M13.9204 7.24316C10.2167 7.24316 7.14795 10.259 7.14795 14.0157C7.14795 17.7723 10.1638 20.7881 13.9204 20.7881C17.6771 20.7881 20.6929 17.7194 20.6929 14.0157C20.6929 10.3119 17.6241 7.24316 13.9204 7.24316ZM13.9204 18.3543C11.5395 18.3543 9.58181 16.3966 9.58181 14.0157C9.58181 11.6347 11.5395 9.67703 13.9204 9.67703C16.3014 9.67703 18.2591 11.6347 18.2591 14.0157C18.2591 16.3966 16.3014 18.3543 13.9204 18.3543Z" fill="black"/>
<path d="M20.9577 8.61883C21.8052 8.61883 22.4921 7.93186 22.4921 7.08444C22.4921 6.23702 21.8052 5.55005 20.9577 5.55005C20.1103 5.55005 19.4233 6.23702 19.4233 7.08444C19.4233 7.93186 20.1103 8.61883 20.9577 8.61883Z" fill="black"/>
<path d="M24.9258 3.11609C23.5501 1.68752 21.5925 0.946777 19.3703 0.946777H8.47079C3.86761 0.946777 0.798828 4.01556 0.798828 8.61873V19.4653C0.798828 21.7404 1.53957 23.6981 3.02105 25.1267C4.44962 26.5023 6.35438 27.1902 8.5237 27.1902H19.3173C21.5925 27.1902 23.4972 26.4494 24.8729 25.1267C26.3015 23.751 27.0422 21.7933 27.0422 19.5182V8.61873C27.0422 6.39651 26.3015 4.49175 24.9258 3.11609ZM24.7142 19.5182C24.7142 21.1584 24.1322 22.4812 23.1798 23.3806C22.2274 24.2801 20.9046 24.7563 19.3173 24.7563H8.5237C6.93639 24.7563 5.61364 24.2801 4.66126 23.3806C3.70888 22.4283 3.23269 21.1055 3.23269 19.4653V8.61873C3.23269 7.03143 3.70888 5.70868 4.66126 4.7563C5.56073 3.85683 6.93639 3.38064 8.5237 3.38064H19.4232C21.0105 3.38064 22.3332 3.85683 23.2856 4.80921C24.1851 5.76159 24.7142 7.08434 24.7142 8.61873V19.5182Z" fill="black"/>
</svg>
