<svg width="26" height="23" viewBox="0 0 26 23" fill="none" xmlns="http://www.w3.org/2000/svg">
<path d="M25.3027 3.05879C24.3654 3.52924 23.3487 3.86463 22.2738 4.04383C23.3464 3.33128 24.1436 2.24495 24.484 0.977703C23.4805 1.6388 22.3585 2.13699 21.1525 2.43412C20.1296 1.44172 18.7105 0.85781 17.1739 0.929952C14.2239 1.06845 11.9443 3.57259 12.0829 6.52314C12.1025 6.94125 12.1687 7.34658 12.2785 7.73397C7.82793 7.71936 3.7912 5.7777 1.00446 2.66913C0.581619 3.47936 0.361465 4.40934 0.407475 5.38934C0.494482 7.24255 1.51426 8.83372 2.99274 9.72421C2.11609 9.73729 1.28074 9.53547 0.541494 9.16916C0.542008 9.19138 0.543075 9.21411 0.544142 9.23684C0.665644 11.8248 2.60858 13.8971 5.07583 14.2739C4.6333 14.4165 4.16435 14.5042 3.677 14.5271C3.33236 14.5433 2.9962 14.5257 2.66711 14.4781C3.44704 16.5684 5.49225 18.0209 7.83166 17.9539C6.07057 19.4728 3.80763 20.4351 1.30426 20.5526C0.873462 20.5728 0.446761 20.5674 0.0263191 20.5374C2.4624 21.9429 5.31173 22.6948 8.32836 22.5532C18.1553 22.0918 23.1461 13.6994 22.8147 6.63963C22.8038 6.40811 22.7882 6.17734 22.7674 5.94841C23.7755 5.14777 24.6373 4.16383 25.3027 3.05879Z" fill="black"/>
</svg>
